<svg width="52" height="41" viewBox="0 0 52 41" fill="none" xmlns="http://www.w3.org/2000/svg">
<path fill-rule="evenodd" clip-rule="evenodd" d="M20.2978 2.05766L2.44462 11.6261C-0.0908208 12.985 -0.0866944 16.6244 2.45122 17.9778L15.2572 24.8055C15.2572 24.8055 31.4461 16.022 37.1128 13.0459C42.7625 10.0786 47.2133 10.4555 49.7322 11.7662C49.6571 11.7189 49.587 11.6674 49.507 11.6247L31.6106 2.05298C29.8451 1.10866 27.9016 0.63623 25.9587 0.63623C24.0122 0.63623 22.066 1.11004 20.2978 2.05766Z" fill="url(#paint0_linear)"/>
<mask id="mask0" mask-type="alpha" maskUnits="userSpaceOnUse" x="0" y="0" width="50" height="25">
<path fill-rule="evenodd" clip-rule="evenodd" d="M20.2978 2.05766L2.44462 11.6261C-0.0908208 12.985 -0.0866944 16.6244 2.45122 17.9778L15.2572 24.8055C15.2572 24.8055 31.4461 16.022 37.1128 13.0459C42.7625 10.0786 47.2133 10.4555 49.7322 11.7662C49.6571 11.7189 49.587 11.6674 49.507 11.6247L31.6106 2.05298C29.8451 1.10866 27.9016 0.63623 25.9587 0.63623C24.0122 0.63623 22.066 1.11004 20.2978 2.05766Z" fill="white"/>
</mask>
<g mask="url(#mask0)">
</g>
<path fill-rule="evenodd" clip-rule="evenodd" d="M37.1154 13.2176C42.7972 10.2106 47.2709 10.6025 49.7922 11.9359C52.1639 13.1909 51.9262 16.9473 49.5357 18.2017C46.9855 19.5401 36.7588 25.0518 36.7588 25.0518C36.7588 25.0518 29.6988 21.229 28.2706 20.4558C26.8424 19.6823 26.1904 19.2981 24.7482 19.8224C24.7482 19.8224 31.4336 16.2244 37.1154 13.2176Z" fill="#00AAA5"/>
<path fill-rule="evenodd" clip-rule="evenodd" d="M27.8422 29.7915C27.832 29.797 23.598 32.1839 20.4525 33.8667C17.3556 35.5235 11.358 34.1768 9.08136 32.999L20.2256 38.9137C22.1056 39.9112 24.1713 40.4129 26.2379 40.4182H26.3044C28.371 40.4129 30.4367 39.9112 32.3167 38.9137L43.5735 32.9392C45.3931 31.9738 45.3989 29.3707 43.5835 28.3969L37.0582 24.8965L27.8422 29.7915ZM9.08135 32.999L8.96912 32.9392C9.00514 32.9591 9.04283 32.9791 9.08135 32.999Z" fill="url(#paint1_linear)"/>
<mask id="mask1" mask-type="alpha" maskUnits="userSpaceOnUse" x="8" y="24" width="37" height="17">
<path fill-rule="evenodd" clip-rule="evenodd" d="M27.8422 29.7915C27.832 29.797 23.598 32.1839 20.4525 33.8667C17.3556 35.5235 11.358 34.1768 9.08136 32.999L20.2256 38.9137C22.1056 39.9112 24.1713 40.4129 26.2379 40.4182H26.3044C28.371 40.4129 30.4367 39.9112 32.3167 38.9137L43.5735 32.9392C45.3931 31.9738 45.3989 29.3707 43.5835 28.3969L37.0582 24.8965L27.8422 29.7915ZM9.08135 32.999L8.96912 32.9392C9.00514 32.9591 9.04283 32.9791 9.08135 32.999Z" fill="white"/>
</mask>
<g mask="url(#mask1)">
</g>
<path fill-rule="evenodd" clip-rule="evenodd" d="M20.3392 33.935C17.2028 35.6022 11.0789 34.1961 8.90267 33.0172C6.72621 31.8385 7.15979 29.4458 8.89246 28.5222C10.6254 27.5986 15.3057 25.104 15.3057 25.104C15.3057 25.104 23.3166 29.3031 24.4567 29.902C25.5968 30.5009 26.7617 30.3965 27.6987 29.902C27.6987 29.902 23.4753 32.2678 20.3392 33.935Z" fill="#FFB115"/>
<defs>
<linearGradient id="paint0_linear" x1="15.7425" y1="0.146984" x2="8.20267" y2="20.0545" gradientUnits="userSpaceOnUse">
<stop stop-color="#00E6AA"/>
<stop offset="1" stop-color="#00BEA4"/>
</linearGradient>
<linearGradient id="paint1_linear" x1="24.7157" y1="27.304" x2="20.8115" y2="39.5752" gradientUnits="userSpaceOnUse">
<stop stop-color="#FA8B00"/>
<stop offset="1" stop-color="#E66E00"/>
</linearGradient>
</defs>
</svg>
