<svg width="46" height="37" viewBox="0 0 46 37" fill="none" xmlns="http://www.w3.org/2000/svg">
<path d="M33.1509 12.2901C38.2645 9.58066 40.7589 9.37996 42.8293 10.1577C39.0378 8.12561 28.1621 2.28031 28.1621 2.28031C24.9692 0.549303 21.1028 0.549303 17.91 2.28031L1.72115 11.0106C-0.573718 12.2399 -0.573718 15.5514 1.72115 16.8057L13.3202 23.0273C13.3202 23.0023 28.0124 15.0246 33.1509 12.2901Z" fill="white"/>
<path d="M34.4483 13.8699C31.0808 15.6511 27.4639 17.6832 25.2937 18.8623C25.5431 18.9877 32.8269 22.9766 32.8269 22.9766C32.8269 22.9766 42.0812 18.0093 44.3761 16.8051C45.748 16.0776 46.5462 13.6442 45.3489 12.4901C43.4781 10.6588 39.5618 11.1605 34.4483 13.8699Z" fill="white"/>
<path d="M38.6884 26.1378L32.8265 22.9768C32.8265 22.9768 20.7535 29.5496 17.9348 31.0799C15.116 32.6103 11.574 32.234 9.25415 31.2806L17.7352 35.6458C21.1276 37.4521 25.1935 37.4521 28.5859 35.6458L38.6884 30.2521C40.3097 29.374 40.3097 27.0409 38.6884 26.1378Z" fill="white"/>
<path d="M16.8623 29.098C18.2093 28.4959 19.681 27.5426 20.9283 26.8652C18.808 25.7363 13.3951 23.052 13.3951 23.052C13.3951 23.052 9.17952 25.3349 7.60803 26.1628C6.75993 26.6144 5.58755 27.9691 7.0842 28.9976C9.55368 30.6032 13.2454 30.7036 16.8623 29.098Z" fill="white"/>
</svg>
